<?xml version="1.0" encoding="UTF-8"?>
<svg version="1.1" xmlns="http://www.w3.org/2000/svg" width="512" height="512">
<path d="M0 0 C5.21233818 2.97238385 8.94377954 6.65307796 12.4375 11.5 C13.38625 10.63375 14.335 9.7675 15.3125 8.875 C25.26737596 0.32193311 34.33751175 -2.54161268 47.27539062 -1.76953125 C54.17289602 -0.90967963 60.2687425 2.8355223 64.9375 7.875 C70.1933398 14.86728245 72.58218866 21.40292315 72.5625 30.125 C72.56507813 31.27226563 72.56765625 32.41953125 72.5703125 33.6015625 C72.4375 36.5 72.4375 36.5 71.4375 38.5 C72.47197266 38.35691406 72.47197266 38.35691406 73.52734375 38.2109375 C82.54241377 37.1474313 89.80390325 37.68915421 97.453125 42.890625 C105.7306746 49.60391326 109.88940724 56.42920575 111.3125 66.875 C111.93231687 76.42281729 108.43334584 84.19570818 102.4375 91.5 C100.51649391 93.36437779 98.59805957 94.90530127 96.4375 96.5 C97.54940951 99.22923244 98.69939536 100.76189536 100.8125 102.875 C108.01770316 110.08020316 109.92202814 117.24163409 109.94165039 127.23974609 C109.71088794 135.09285273 106.92514805 141.48392043 101.76171875 147.4296875 C94.85235908 153.81488885 87.09880796 156.64596232 77.8125 156.625 C76.66523438 156.62757813 75.51796875 156.63015625 74.3359375 156.6328125 C71.4375 156.5 71.4375 156.5 69.4375 155.5 C69.53289062 156.18964844 69.62828125 156.87929687 69.7265625 157.58984375 C70.7900687 166.60491377 70.24834579 173.86640325 65.046875 181.515625 C58.33358674 189.7931746 51.50829425 193.95190724 41.0625 195.375 C33.86912384 195.88523948 27.75387317 193.79487348 21.4375 190.5 C21.52178839 192.45859596 21.60632464 194.41718138 21.69165039 196.37573242 C21.77643791 198.34845526 21.85874242 200.32128564 21.93920898 202.29418945 C22.18313402 208.14296975 22.45856054 213.98562062 22.81326294 219.82858276 C25.26469814 260.67207949 24.62820559 301.60273237 24.4375 342.5 C24.96859375 341.83250732 25.4996875 341.16501465 26.046875 340.47729492 C26.75328125 339.59146729 27.4596875 338.70563965 28.1875 337.79296875 C28.88359375 336.91922607 29.5796875 336.0454834 30.296875 335.14526367 C39.17202302 324.17785619 49.11137253 315.82470369 60.4375 307.5 C60.02757812 306.90832031 59.61765625 306.31664062 59.1953125 305.70703125 C58.65648437 304.91683594 58.11765625 304.12664062 57.5625 303.3125 C57.02882813 302.53519531 56.49515625 301.75789063 55.9453125 300.95703125 C51.49573829 293.70630022 51.18785622 285.91013443 53.08984375 277.67578125 C55.1859228 271.80136229 58.40249075 267.24525318 63.4375 263.5 C64.0975 263.5 64.7575 263.5 65.4375 263.5 C64.82261719 262.78714844 64.20773437 262.07429688 63.57421875 261.33984375 C56.17595362 252.57284057 52.73394928 246.67686582 53.03125 235.0078125 C54.00042525 226.63935695 58.04585153 221.18331807 64.375 215.875 C68.59552463 213.06131692 72.48178402 212.19949264 77.5 211.8125 C78.52222656 211.72613281 79.54445313 211.63976562 80.59765625 211.55078125 C83.14131079 211.50529637 85.03209155 211.73280738 87.4375 212.5 C87.40269531 211.7265625 87.36789062 210.953125 87.33203125 210.15625 C87.08337465 200.58889113 88.51299944 193.86105923 94.6015625 186.33203125 C100.22205156 180.72350068 106.18773809 179.18016545 114 178.9375 C123.81653238 179.31315784 129.58589008 181.94588136 136.22265625 189.109375 C136.62355469 189.56828125 137.02445312 190.0271875 137.4375 190.5 C140.32638402 189.18458222 142.4405518 187.72864115 144.75 185.5625 C151.58584975 179.68883919 157.13595272 178.94027408 166.05859375 179.1484375 C170.62543158 179.62359982 173.72803949 180.85907261 177.4375 183.5 C178.489375 184.221875 179.54125 184.94375 180.625 185.6875 C186.90097351 191.96347351 188.9571445 197.90980957 189.4921875 206.703125 C189.43885423 209.43074097 189.06598158 211.85070842 188.4375 214.5 C188.953125 214.335 189.46875 214.17 190 214 C197.44925506 212.47194768 203.76744753 214.0978899 210.4375 217.5 C216.32912775 221.84998515 220.66828001 227.33520848 222.4375 234.5 C223.59446667 243.27090926 222.5095159 250.18839266 217.4375 257.5 C215.54674004 259.80681961 213.73503132 261.55986244 211.4375 263.5 C210.7775 263.5 210.1175 263.5 209.4375 263.5 C210.05238281 264.21285156 210.66726563 264.92570312 211.30078125 265.66015625 C218.78003144 274.52312736 222.06365785 280.35093845 221.7890625 292.12109375 C221.31296612 296.69690893 220.06799331 299.77710914 217.4375 303.5 C216.7775 304.53125 216.1175 305.5625 215.4375 306.625 C210.78906353 311.79940634 203.88719367 315.08125106 197.05859375 315.91015625 C189.38705621 315.97477811 189.38705621 315.97477811 186.4375 314.5 C186.59798828 315.51707031 186.59798828 315.51707031 186.76171875 316.5546875 C187.80573396 324.65983783 187.37225667 331.03467646 182.8046875 337.984375 C177.38689411 344.69629718 171.78829647 347.81551927 163.26171875 348.90625 C154.61444951 349.31270214 148.19707455 347.40113425 141.48828125 341.90234375 C139.8125 340.3125 139.8125 340.3125 137.4375 337.5 C137.4375 336.84 137.4375 336.18 137.4375 335.5 C136.72464844 336.11488281 136.01179688 336.72976563 135.27734375 337.36328125 C126.51034057 344.76154638 120.61436582 348.20355072 108.9453125 347.90625 C101.66370429 347.06294571 96.49391036 343.96231782 91.5 338.6875 C85.41030546 330.97484442 85.00282704 324.1593991 85.4375 314.5 C77.39882538 313.25261946 72.49214016 316.26817169 66.12890625 320.7421875 C51.54047901 331.46226622 39.10199985 343.89026187 29.70117188 359.44799805 C28.4375 361.5 28.4375 361.5 26.87695312 363.65551758 C21.28258583 372.18862297 21.1930876 381.20540354 20.61920166 391.09875488 C20.30415146 396.45429086 19.89441853 401.80276473 19.4921875 407.15234375 C19.41080536 408.25619415 19.32942322 409.36004456 19.24557495 410.49734497 C17.24738957 436.84294579 13.47766972 463.11450899 9.25 489.1875 C9.12957336 489.94647583 9.00914673 490.70545166 8.8850708 491.48742676 C8.54616186 493.60192508 8.19212383 495.71323739 7.83203125 497.82421875 C7.63456299 499.00072998 7.43709473 500.17724121 7.23364258 501.3894043 C6.40598812 504.62311955 5.47626658 506.85841989 3.4375 509.5 C-2.42012921 510.33680417 -2.42012921 510.33680417 -5.26382446 508.25375366 C-8.47882271 503.91216504 -6.65953925 496.64316081 -5.95166016 491.57958984 C-5.6761362 489.87208852 -5.39246068 488.1658869 -5.1015625 486.4609375 C-4.95093353 485.53640778 -4.80030457 484.61187805 -4.64511108 483.65933228 C-4.16668477 480.72993909 -3.67774741 477.80243588 -3.1875 474.875 C-1.95282025 467.42077691 -0.73948497 459.9635568 0.4375 452.5 C0.56600342 451.7006604 0.69450684 450.9013208 0.8269043 450.07775879 C1.17078775 447.9004092 1.49186195 445.72106203 1.8046875 443.5390625 C2.07321533 441.73622803 2.07321533 441.73622803 2.34716797 439.89697266 C2.52108279 433.35683512 -0.36374641 428.03453941 -3.5625 422.5 C-3.9352002 421.84467285 -4.30790039 421.1893457 -4.69189453 420.51416016 C-16.18786403 400.59128088 -31.37665135 384.15449592 -50.5625 371.5 C-50.51609375 372.18964844 -50.4696875 372.87929688 -50.421875 373.58984375 C-50.0724376 382.6876961 -52.10136236 388.69258931 -57.75 395.8125 C-63.3316236 401.72453684 -68.93432804 403.69670799 -77 404 C-86.38510755 403.66051536 -92.92911531 400.89652117 -99.3828125 394.0859375 C-100.5625 392.5 -100.5625 392.5 -100.5625 390.5 C-101.63177734 391.42232422 -101.63177734 391.42232422 -102.72265625 392.36328125 C-111.58562736 399.84253144 -117.41343845 403.12615785 -129.18359375 402.8515625 C-133.75043158 402.37640018 -136.85303949 401.14092739 -140.5625 398.5 C-142.1403125 397.4171875 -142.1403125 397.4171875 -143.75 396.3125 C-150.02597351 390.03652649 -152.0821445 384.09019043 -152.6171875 375.296875 C-152.56385423 372.56925903 -152.19098158 370.14929158 -151.5625 367.5 C-152.078125 367.665 -152.59375 367.83 -153.125 368 C-161.13764716 369.64361993 -167.84378186 367.5739005 -174.8125 363.6875 C-179.84816764 359.68185529 -184.10144589 354.89071759 -185.5625 348.5 C-186.57126718 339.39892468 -185.90968602 332.083282 -180.5625 324.5 C-178.67016109 322.19588074 -176.85919104 320.43942799 -174.5625 318.5 C-173.9025 318.5 -173.2425 318.5 -172.5625 318.5 C-173.17738281 317.78714844 -173.79226562 317.07429688 -174.42578125 316.33984375 C-181.90503144 307.47687264 -185.18865785 301.64906155 -184.9140625 289.87890625 C-184.43796612 285.30309107 -183.19299331 282.22289086 -180.5625 278.5 C-179.9025 277.46875 -179.2425 276.4375 -178.5625 275.375 C-173.90036284 270.18534274 -166.97476327 266.87098219 -160.11328125 266.125 C-157.2362118 266.125 -154.42547713 266.22588517 -151.5625 266.5 C-151.55992187 265.77296875 -151.55734375 265.0459375 -151.5546875 264.296875 C-151.20601063 255.23127646 -148.87113721 247.49880793 -142.85546875 240.51953125 C-135.90011346 234.16079786 -129.34827608 232.86316647 -120.07421875 233.08984375 C-112.87766281 233.93037587 -107.67649927 236.89020316 -102.9375 242.3125 C-102.15375 243.364375 -101.37 244.41625 -100.5625 245.5 C-97.67361598 244.18458222 -95.5594482 242.72864115 -93.25 240.5625 C-86.49147515 234.75528012 -80.90704821 233.86861024 -72.0703125 234.09375 C-64.78870429 234.93705429 -59.61891036 238.03768218 -54.625 243.3125 C-48.65351115 250.87544697 -47.80010033 257.97000411 -48.5625 267.5 C-48.8925 268.16 -49.2225 268.82 -49.5625 269.5 C-48.87285156 269.39300781 -48.18320313 269.28601563 -47.47265625 269.17578125 C-39.12270059 268.11056057 -33.61877621 269.23784596 -26.3125 273.3125 C-21.27683236 277.31814471 -17.02355411 282.10928241 -15.5625 288.5 C-14.55373282 297.60107532 -15.21531398 304.916718 -20.5625 312.5 C-22.45483891 314.80411926 -24.26580896 316.56057201 -26.5625 318.5 C-27.2225 318.5 -27.8825 318.5 -28.5625 318.5 C-27.94761719 319.21285156 -27.33273438 319.92570312 -26.69921875 320.66015625 C-19.30095362 329.42715943 -15.85894928 335.32313418 -16.15625 346.9921875 C-17.15508065 355.61670598 -21.35957509 361.00264434 -27.98828125 366.3203125 C-28.50777344 366.70960938 -29.02726563 367.09890625 -29.5625 367.5 C-26.68499888 371.06262043 -23.8363515 374.38427053 -20.25 377.25 C-9.91737679 385.83402544 -1.93447291 398.38292259 5.4375 409.5 C11.03801807 345.00425434 12.7150878 280.14378619 8.4375 215.5 C8.39175842 214.80473206 8.34601685 214.10946411 8.29888916 213.39312744 C7.62775309 199.35033743 7.62775309 199.35033743 5.4375 185.5 C4.85742188 185.90992188 4.27734375 186.31984375 3.6796875 186.7421875 C2.89851562 187.28101563 2.11734375 187.81984375 1.3125 188.375 C0.54679688 188.90867188 -0.21890625 189.44234375 -1.0078125 189.9921875 C-8.47500845 194.39943159 -17.12600467 194.69557892 -25.5625 193.5 C-35.24868977 190.46225522 -41.2390926 185.14201975 -45.875 176.3125 C-48.23714469 171.41877408 -48.69979185 167.32029018 -48.6875 161.875 C-48.69007813 160.72773438 -48.69265625 159.58046875 -48.6953125 158.3984375 C-48.5625 155.5 -48.5625 155.5 -47.5625 153.5 C-48.25214844 153.59539062 -48.94179687 153.69078125 -49.65234375 153.7890625 C-58.67170166 154.85307454 -65.92084879 154.30491452 -73.578125 149.11328125 C-81.44708836 142.715876 -86.18216454 135.83371653 -87.4375 125.6875 C-88.01467454 115.83869191 -84.77623763 108.06973313 -78.5625 100.5 C-76.64149391 98.63562221 -74.72305957 97.09469873 -72.5625 95.5 C-73.42875 94.55125 -74.295 93.6025 -75.1875 92.625 C-83.74056689 82.67012404 -86.60411268 73.59998825 -85.83203125 60.66210938 C-84.97217963 53.76460398 -81.2269777 47.6687575 -76.1875 43 C-69.19521755 37.7441602 -62.65957685 35.35531134 -53.9375 35.375 C-52.21660156 35.37113281 -52.21660156 35.37113281 -50.4609375 35.3671875 C-47.5625 35.5 -47.5625 35.5 -45.5625 36.5 C-45.76875 35.38625 -45.975 34.2725 -46.1875 33.125 C-47.37119843 23.41524186 -43.78302941 14.56406453 -38.0625 6.875 C-28.20923505 -3.78711505 -12.92688986 -5.88909626 0 0 Z " fill="#FEC511" transform="translate(237.5625,2.5)"/>
<path d="M0 0 C5.21233818 2.97238385 8.94377954 6.65307796 12.4375 11.5 C13.38625 10.63375 14.335 9.7675 15.3125 8.875 C25.26737596 0.32193311 34.33751175 -2.54161268 47.27539062 -1.76953125 C54.17289602 -0.90967963 60.2687425 2.8355223 64.9375 7.875 C70.1933398 14.86728245 72.58218866 21.40292315 72.5625 30.125 C72.56507813 31.27226563 72.56765625 32.41953125 72.5703125 33.6015625 C72.4375 36.5 72.4375 36.5 71.4375 38.5 C72.12714844 38.40460937 72.81679688 38.30921875 73.52734375 38.2109375 C82.54241377 37.1474313 89.80390325 37.68915421 97.453125 42.890625 C105.7306746 49.60391326 109.88940724 56.42920575 111.3125 66.875 C111.93231687 76.42281729 108.43334584 84.19570818 102.4375 91.5 C100.51649391 93.36437779 98.59805957 94.90530127 96.4375 96.5 C97.54940951 99.22923244 98.69939536 100.76189536 100.8125 102.875 C108.01770316 110.08020316 109.92202814 117.24163409 109.94165039 127.23974609 C109.71088794 135.09285273 106.92514805 141.48392043 101.76171875 147.4296875 C94.85235908 153.81488885 87.09880796 156.64596232 77.8125 156.625 C76.66523438 156.62757813 75.51796875 156.63015625 74.3359375 156.6328125 C71.4375 156.5 71.4375 156.5 69.4375 155.5 C69.53289062 156.18964844 69.62828125 156.87929687 69.7265625 157.58984375 C70.7900687 166.60491377 70.24834579 173.86640325 65.046875 181.515625 C58.33358674 189.7931746 51.50829425 193.95190724 41.0625 195.375 C32.90961116 195.92907982 25.82239444 193.60791555 19.4375 188.5 C12.92398649 182.47297297 12.92398649 182.47297297 11.4375 179.5 C8.34515578 180.70575701 8.34515578 180.70575701 6.5703125 183.3828125 C5.16576621 186.00786108 3.67238423 187.01067045 1.1875 188.625 C0.43984375 189.12257812 -0.3078125 189.62015625 -1.078125 190.1328125 C-8.64650367 194.29780076 -17.12683095 194.69546182 -25.5625 193.5 C-35.24868977 190.46225522 -41.2390926 185.14201975 -45.875 176.3125 C-48.23714469 171.41877408 -48.69979185 167.32029018 -48.6875 161.875 C-48.69136719 160.15410156 -48.69136719 160.15410156 -48.6953125 158.3984375 C-48.5625 155.5 -48.5625 155.5 -47.5625 153.5 C-48.59697266 153.64308594 -48.59697266 153.64308594 -49.65234375 153.7890625 C-58.67170166 154.85307454 -65.92084879 154.30491452 -73.578125 149.11328125 C-81.44708836 142.715876 -86.18216454 135.83371653 -87.4375 125.6875 C-88.01467454 115.83869191 -84.77623763 108.06973313 -78.5625 100.5 C-76.64149391 98.63562221 -74.72305957 97.09469873 -72.5625 95.5 C-73.42875 94.55125 -74.295 93.6025 -75.1875 92.625 C-83.74056689 82.67012404 -86.60411268 73.59998825 -85.83203125 60.66210938 C-84.97217963 53.76460398 -81.2269777 47.6687575 -76.1875 43 C-69.19521755 37.7441602 -62.65957685 35.35531134 -53.9375 35.375 C-52.79023438 35.37242188 -51.64296875 35.36984375 -50.4609375 35.3671875 C-47.5625 35.5 -47.5625 35.5 -45.5625 36.5 C-45.76875 35.38625 -45.975 34.2725 -46.1875 33.125 C-47.37119843 23.41524186 -43.78302941 14.56406453 -38.0625 6.875 C-28.20923505 -3.78711505 -12.92688986 -5.88909626 0 0 Z " fill="#FEC711" transform="translate(237.5625,2.5)"/>
<path d="M0 0 C3.34136298 2.47236382 5.6528381 5.2497383 8.1328125 8.578125 C11.02169652 7.26270722 13.1358643 5.80676615 15.4453125 3.640625 C22.20383735 -2.16659488 27.78826429 -3.05326476 36.625 -2.828125 C43.90660821 -1.98482071 49.07640214 1.11580718 54.0703125 6.390625 C60.04180135 13.95357197 60.89521217 21.04812911 60.1328125 30.578125 C59.8028125 31.238125 59.4728125 31.898125 59.1328125 32.578125 C59.82246094 32.47113281 60.51210937 32.36414063 61.22265625 32.25390625 C69.57261191 31.18868557 75.07653629 32.31597096 82.3828125 36.390625 C87.41848014 40.39626971 91.67175839 45.18740741 93.1328125 51.578125 C94.14157968 60.67920032 93.47999852 67.994843 88.1328125 75.578125 C86.24047359 77.88224426 84.42950354 79.63869701 82.1328125 81.578125 C81.4728125 81.578125 80.8128125 81.578125 80.1328125 81.578125 C80.74769531 82.29097656 81.36257812 83.00382812 81.99609375 83.73828125 C89.39435888 92.50528443 92.83636322 98.40125918 92.5390625 110.0703125 C91.69461826 117.36176376 88.56363188 122.54164267 83.3203125 127.578125 C75.70472086 133.59415929 67.40898407 132.8326541 58.1328125 132.578125 C58.17921875 133.41214844 58.225625 134.24617187 58.2734375 135.10546875 C58.5896244 144.9637246 57.05761963 151.15784575 50.9453125 158.890625 C45.3636889 164.80266184 39.76098446 166.77483299 31.6953125 167.078125 C22.31020495 166.73864036 15.76619719 163.97464617 9.3125 157.1640625 C8.1328125 155.578125 8.1328125 155.578125 8.1328125 153.578125 C7.41996094 154.19300781 6.70710938 154.80789063 5.97265625 155.44140625 C-2.89031486 162.92065644 -8.71812595 166.20428285 -20.48828125 165.9296875 C-25.05511908 165.45452518 -28.15772699 164.21905239 -31.8671875 161.578125 C-32.9190625 160.85625 -33.9709375 160.134375 -35.0546875 159.390625 C-41.33066101 153.11465149 -43.386832 147.16831543 -43.921875 138.375 C-43.86854173 135.64738403 -43.49566908 133.22741658 -42.8671875 130.578125 C-43.3828125 130.743125 -43.8984375 130.908125 -44.4296875 131.078125 C-52.44233466 132.72174493 -59.14846936 130.6520255 -66.1171875 126.765625 C-71.15285514 122.75998029 -75.40613339 117.96884259 -76.8671875 111.578125 C-77.87595468 102.47704968 -77.21437352 95.161407 -71.8671875 87.578125 C-69.97484859 85.27400574 -68.16387854 83.51755299 -65.8671875 81.578125 C-65.2071875 81.578125 -64.5471875 81.578125 -63.8671875 81.578125 C-64.48207031 80.86527344 -65.09695312 80.15242188 -65.73046875 79.41796875 C-73.20971894 70.55499764 -76.49334535 64.72718655 -76.21875 52.95703125 C-75.74265362 48.38121607 -74.49768081 45.30101586 -71.8671875 41.578125 C-71.2071875 40.546875 -70.5471875 39.515625 -69.8671875 38.453125 C-65.20505034 33.26346774 -58.27945077 29.94910719 -51.41796875 29.203125 C-48.5408993 29.203125 -45.73016463 29.30401017 -42.8671875 29.578125 C-42.86460938 28.85109375 -42.86203125 28.1240625 -42.859375 27.375 C-42.51069813 18.30940146 -40.17582471 10.57693293 -34.16015625 3.59765625 C-24.62517967 -5.11942166 -11.28035287 -6.4778264 0 0 Z " fill="#FEC911" transform="translate(128.8671875,239.421875)"/>
<path d="M0 0 C5.6273876 3.20576589 9.62084465 7.4283238 13.5 12.5625 C12.35949253 16.17410699 11.04446574 19.64436782 9.5625 23.125 C4.44834605 36.02488085 3.8518596 48.85552734 3.5 62.5625 C2.85933594 62.85382813 2.21867187 63.14515625 1.55859375 63.4453125 C-8.6433122 68.2801949 -14.30851193 73.44084037 -19.5 83.5625 C-20.83495118 87.56735353 -20.68416695 91.24452582 -20.6875 95.4375 C-20.69974609 96.24058594 -20.71199219 97.04367188 -20.72460938 97.87109375 C-20.73568259 102.35205439 -20.22161358 105.3928536 -18.5 109.5625 C-18.5916449 113.06117868 -19.17857155 114.23640472 -21.65234375 116.74609375 C-23.03099609 117.86177734 -23.03099609 117.86177734 -24.4375 119 C-33.12714044 126.56949148 -39.86391749 135.99223188 -44.5 146.5625 C-44.79519531 147.23410156 -45.09039062 147.90570313 -45.39453125 148.59765625 C-46.11212461 150.24582729 -46.80861086 151.90316607 -47.5 153.5625 C-57.20962725 154.90551386 -65.1950472 154.817133 -73.515625 149.17578125 C-81.38458836 142.778376 -86.11966454 135.89621653 -87.375 125.75 C-87.95217454 115.90119191 -84.71373763 108.13223313 -78.5 100.5625 C-76.57899391 98.69812221 -74.66055957 97.15719873 -72.5 95.5625 C-73.36625 94.61375 -74.2325 93.665 -75.125 92.6875 C-83.67806689 82.73262404 -86.54161268 73.66248825 -85.76953125 60.72460938 C-84.90967963 53.82710398 -81.1644777 47.7312575 -76.125 43.0625 C-69.13271755 37.8066602 -62.59707685 35.41781134 -53.875 35.4375 C-52.72773438 35.43492188 -51.58046875 35.43234375 -50.3984375 35.4296875 C-47.5 35.5625 -47.5 35.5625 -45.5 36.5625 C-45.70625 35.44875 -45.9125 34.335 -46.125 33.1875 C-47.30869843 23.47774186 -43.72052941 14.62656453 -38 6.9375 C-28.17858839 -3.69014689 -12.91630247 -5.82212119 0 0 Z " fill="#FECC11" transform="translate(237.5,2.4375)"/>
<path d="M0 0 C6.89028534 4.96231997 11.83006593 12.35842754 13.45703125 20.76953125 C14.19874567 29.6336265 13.21118788 36.72155797 9.45703125 44.76953125 C9.04453125 45.67445312 8.63203125 46.579375 8.20703125 47.51171875 C3.40863358 57.13577771 -4.01125272 64.25045233 -11.54296875 71.76953125 C-12.26484375 72.53265625 -12.98671875 73.29578125 -13.73046875 74.08203125 C-15.54296875 75.76953125 -15.54296875 75.76953125 -17.54296875 75.76953125 C-16.55296875 77.44015625 -16.55296875 77.44015625 -15.54296875 79.14453125 C-11.99753193 87.16306399 -12.04593069 97.50340181 -14.42578125 105.875 C-15.60477201 108.39304318 -16.90430932 110.52627738 -18.54296875 112.76953125 C-19.03925781 113.48367187 -19.53554688 114.1978125 -20.046875 114.93359375 C-24.92605052 121.21185816 -31.76097577 125.75535536 -39.58203125 127.4140625 C-49.29388964 128.57999801 -57.50891115 127.84044306 -65.66796875 122.08203125 C-72.82875901 116.29063515 -79.64470037 109.26548924 -80.78222656 99.77294922 C-81.53232462 90.22072281 -81.40918107 81.75409802 -75.54296875 73.76953125 C-75.011875 73.04378906 -74.48078125 72.31804687 -73.93359375 71.5703125 C-68.97980239 65.42352093 -63.43039404 61.06590738 -55.54296875 59.76953125 C-55.60097656 58.47402344 -55.65898437 57.17851563 -55.71875 55.84375 C-56.2475335 38.72641168 -54.27853955 18.90378518 -42.4765625 5.40625 C-30.63496072 -5.85871725 -14.34312539 -8.37826887 0 0 Z " fill="#FEC111" transform="translate(296.54296875,5.23046875)"/>
<path d="M0 0 C3.43632231 1.14544077 4.33471585 2.2711508 6.625 5 C7.23601562 5.721875 7.84703125 6.44375 8.4765625 7.1875 C8.97929687 7.785625 9.48203125 8.38375 10 9 C10.495 9.495 10.495 9.495 11 10 C11.29319589 12.85482228 11.5258891 15.69250577 11.71875 18.5546875 C11.81295227 19.8881572 11.81295227 19.8881572 11.90905762 21.24856567 C12.04239181 23.15350856 12.1733747 25.05861719 12.30224609 26.96386719 C12.49309105 29.77329347 12.69312546 32.58193887 12.89453125 35.390625 C14.89393247 63.86694067 15.13607087 92.26206029 15.06866455 120.79315186 C15.05825251 125.68175818 15.05382949 130.57037005 15.04882812 135.45898438 C15.03824968 144.97267032 15.02128791 154.48633239 15 164 C15.53109375 163.33250732 16.0621875 162.66501465 16.609375 161.97729492 C17.66898438 160.64855347 17.66898438 160.64855347 18.75 159.29296875 C19.79414063 157.98235474 19.79414063 157.98235474 20.859375 156.64526367 C26.40087771 149.79738709 32.14754763 143.54778305 39 138 C39.98871094 137.1853125 40.97742188 136.370625 41.99609375 135.53125 C43.05824695 134.68542525 44.12204596 133.84166302 45.1875 133 C46.66283203 131.824375 46.66283203 131.824375 48.16796875 130.625 C51 129 51 129 53.67578125 129.15625 C56.57525853 130.20883335 59.24233207 131.62116603 62 133 C64.73572585 133.69907414 64.73572585 133.69907414 67 134 C67 134.66 67 135.32 67 136 C64.98358504 137.36674935 62.96374386 138.62757099 60.875 139.875 C44.18927321 150.24478151 30.43075966 164.12215356 20.26367188 180.94799805 C19 183 19 183 17.43945312 185.15551758 C11.84508583 193.68862297 11.7555876 202.70540354 11.18170166 212.59875488 C10.86665146 217.95429086 10.45691853 223.30276473 10.0546875 228.65234375 C9.93261429 230.30811935 9.93261429 230.30811935 9.80807495 231.99734497 C7.80988957 258.34294579 4.04016972 284.61450899 -0.1875 310.6875 C-0.30792664 311.44647583 -0.42835327 312.20545166 -0.5524292 312.98742676 C-0.89133814 315.10192508 -1.24537617 317.21323739 -1.60546875 319.32421875 C-1.80293701 320.50072998 -2.00040527 321.67724121 -2.20385742 322.8894043 C-3.03151188 326.12311955 -3.96123342 328.35841989 -6 331 C-11.85762921 331.83680417 -11.85762921 331.83680417 -14.70132446 329.75375366 C-17.91632271 325.41216504 -16.09703925 318.14316081 -15.38916016 313.07958984 C-15.1136362 311.37208852 -14.82996068 309.6658869 -14.5390625 307.9609375 C-14.31311905 306.57414291 -14.31311905 306.57414291 -14.08261108 305.15933228 C-13.60418477 302.22993909 -13.11524741 299.30243588 -12.625 296.375 C-11.39032025 288.92077691 -10.17698497 281.4635568 -9 274 C-8.80724487 272.8009906 -8.80724487 272.8009906 -8.6105957 271.57775879 C-8.26671225 269.4004092 -7.94563805 267.22106203 -7.6328125 265.0390625 C-7.45379395 263.83717285 -7.27477539 262.6352832 -7.09033203 261.39697266 C-6.91641721 254.85683512 -9.80124641 249.53453941 -13 244 C-13.55905029 243.01700928 -13.55905029 243.01700928 -14.12939453 242.01416016 C-24.55543623 223.94549966 -38.24992981 207.59896582 -55.7331543 196.01928711 C-57.18380824 195.05420247 -58.59645324 194.0323961 -60 193 C-60 192.34 -60 191.68 -60 191 C-59.13117188 190.93941406 -58.26234375 190.87882813 -57.3671875 190.81640625 C-56.21476563 190.73261719 -55.06234375 190.64882813 -53.875 190.5625 C-52.73804688 190.48128906 -51.60109375 190.40007812 -50.4296875 190.31640625 C-47.02653137 190.08843931 -47.02653137 190.08843931 -43.89453125 189.234375 C-41 189 -41 189 -38.39453125 190.44921875 C-24.66607209 202.34998592 -14.01287337 215.92319027 -4 231 C2.17485717 159.89014686 3.92915466 87.9657772 -2.6328125 16.80078125 C-2.90010026 13.54964937 -3.13086316 10.30346222 -3.2421875 7.04296875 C-3.26909668 6.33551514 -3.29600586 5.62806152 -3.32373047 4.89916992 C-2.90547617 2.44547447 -1.87071318 1.57143599 0 0 Z " fill="#569E4B" transform="translate(247,181)"/>
<path d="M0 0 C7.44933583 3.87073332 12.09671892 10.17344562 15.10546875 17.890625 C17.2663749 25.55375032 17.04863636 33.86615912 13.3125 40.97265625 C8.56224839 48.39316763 4.09734893 51.74240071 -4.0078125 55.03515625 C-4.04745117 55.63352295 -4.08708984 56.23188965 -4.12792969 56.84838867 C-5.69642594 79.40743762 -5.69642594 79.40743762 -10.0078125 90.03515625 C-10.35585938 90.93363281 -10.70390625 91.83210938 -11.0625 92.7578125 C-14.51417275 100.64905056 -19.98402422 105.51042635 -27.1953125 110.03515625 C-36.01500879 112.34851921 -44.82578813 112.31629301 -52.8203125 107.6484375 C-59.99098564 102.36006606 -64.02570804 96.16642525 -65.42578125 87.42578125 C-66.35660984 74.42930661 -59.187757 62.53381266 -51.36328125 52.67578125 C-47.87454945 48.76469883 -44.08941763 45.31587905 -40.0078125 42.03515625 C-40.5028125 40.17890625 -40.5028125 40.17890625 -41.0078125 38.28515625 C-43.1139436 28.64847005 -43.16588326 18.70453707 -37.82421875 10.13671875 C-28.849498 -1.5075365 -13.61545088 -5.36139549 0 0 Z " fill="#FEC111" transform="translate(388.0078125,238.96484375)"/>
<path d="M0 0 C5.95855256 3.69698755 10.78793954 8.77115196 13.25390625 15.3984375 C13.25390625 16.3884375 13.25390625 17.3784375 13.25390625 18.3984375 C14.12789062 18.35203125 15.001875 18.305625 15.90234375 18.2578125 C31.15057794 17.81027523 48.84110417 20.01109516 60.65625 30.5390625 C67.72141185 38.0513865 69.92240944 44.59718716 69.66015625 54.890625 C68.81571201 62.18207626 65.68472563 67.36195517 60.44140625 72.3984375 C56.62085134 75.41093441 53.10085746 76.94403582 48.25390625 77.3984375 C46.70703125 77.55505859 46.70703125 77.55505859 45.12890625 77.71484375 C31.73107216 78.41763192 21.1202669 73.12637192 11.25390625 64.3984375 C10.52171875 63.78484375 9.78953125 63.17125 9.03515625 62.5390625 C5.67512676 59.69034185 2.81513533 57.0045852 0.25390625 53.3984375 C-0.32875 53.5428125 -0.91140625 53.6871875 -1.51171875 53.8359375 C-11.84439999 56.1754125 -21.40338398 57.05617409 -30.74609375 51.3984375 C-37.90461606 46.58020133 -41.43390374 39.55248812 -43.74609375 31.3984375 C-44.58369365 23.54837332 -44.32243202 16.96842808 -39.74609375 10.3984375 C-39.04484375 9.3671875 -38.34359375 8.3359375 -37.62109375 7.2734375 C-28.28634579 -3.37400939 -12.62985959 -5.86757892 0 0 Z " fill="#FEC111" transform="translate(151.74609375,294.6015625)"/>
<path d="M0 0 C7.70683591 4.64145277 14.95078936 11.6582234 18.3359375 20.12109375 C20.50033597 29.5043977 20.698659 40.52752218 15.53515625 48.8984375 C14.77525391 49.93871094 14.77525391 49.93871094 14 51 C13.50371094 51.71414062 13.00742187 52.42828125 12.49609375 53.1640625 C7.61691823 59.44232691 0.78199298 63.98582411 -7.0390625 65.64453125 C-16.75092089 66.81046676 -24.9659424 66.07091181 -33.125 60.3125 C-40.28579026 54.5211039 -47.10173162 47.49595799 -48.23925781 38.00341797 C-48.98935587 28.45119156 -48.86621232 19.98456677 -43 12 C-42.46890625 11.27425781 -41.9378125 10.54851562 -41.390625 9.80078125 C-31.35918726 -2.64648439 -14.72072461 -7.430461 0 0 Z " fill="#BB7A27" transform="translate(264,67)"/>
<path d="M0 0 C7.44933583 3.87073332 12.09671892 10.17344562 15.10546875 17.890625 C17.2663749 25.55375032 17.04863636 33.86615912 13.3125 40.97265625 C8.257297 48.86954141 3.03965645 52.91086826 -5.92578125 55.61328125 C-14.34692638 57.31962961 -22.60314203 56.4355749 -30.0078125 52.03515625 C-36.75015391 47.07755227 -40.27866219 41.19152563 -42.0078125 33.03515625 C-43.00738728 24.05047257 -42.07426161 15.65093866 -36.4453125 8.34765625 C-26.9815872 -1.85319339 -12.99924161 -5.11874899 0 0 Z " fill="#BB7A27" transform="translate(388.0078125,238.96484375)"/>
<path d="M0 0 C6.65399047 4.12847242 11.95016817 9.95067481 13.80078125 17.68359375 C15.61379462 28.54604457 14.21582953 36.67565943 8.00390625 45.6484375 C1.22327958 52.42906417 -6.02666153 55.39694712 -15.62109375 55.7734375 C-24.14703062 55.61357618 -30.76734921 52.5130626 -36.74609375 46.3984375 C-42.69041864 37.48195017 -44.80683876 29.0975569 -43.74609375 18.3984375 C-42.8373753 15.36773867 -41.54842918 12.98594877 -39.74609375 10.3984375 C-39.04484375 9.3671875 -38.34359375 8.3359375 -37.62109375 7.2734375 C-28.28634579 -3.37400939 -12.62985959 -5.86757892 0 0 Z " fill="#BB7A27" transform="translate(151.74609375,294.6015625)"/>
<path d="M0 0 C2.11250058 1.0065975 3.45175753 2.12883543 5.078125 3.80859375 C5.59890625 4.33324219 6.1196875 4.85789063 6.65625 5.3984375 C7.828125 6.87109375 7.828125 6.87109375 7.828125 8.87109375 C8.40949219 9.12632812 8.99085938 9.3815625 9.58984375 9.64453125 C12.04860904 10.99191746 13.65094562 12.52603646 15.640625 14.49609375 C22.77266395 20.99918417 31.8393344 25.47456601 40.828125 28.87109375 C42.1704451 38.5757053 42.08947615 46.57498912 36.4375 54.88671875 C29.72421174 63.16426835 22.89891925 67.32300099 12.453125 68.74609375 C4.30023616 69.30017357 -2.78698056 66.9790093 -9.171875 61.87109375 C-16.80637573 55.10818507 -16.80637573 55.10818507 -18.171875 49.87109375 C-17.4140625 47.7578125 -17.4140625 47.7578125 -16.046875 45.55859375 C-8.85822059 32.20262381 -8.42279338 17.70123544 -8.171875 2.87109375 C-2.82377703 -0.16759828 -2.82377703 -0.16759828 0 0 Z " fill="#FED612" transform="translate(266.171875,129.12890625)"/>
<path d="M0 0 C5.6273876 3.20576589 9.62084465 7.4283238 13.5 12.5625 C12.35949253 16.17410699 11.04446574 19.64436782 9.5625 23.125 C4.4425744 36.03943921 3.87570445 48.84281003 3.5 62.5625 C0.53 63.5525 -2.44 64.5425 -5.5 65.5625 C-6.52738281 64.48871094 -7.55476563 63.41492188 -8.61328125 62.30859375 C-18.85254023 51.74331478 -27.9548998 43.7796608 -42.06640625 38.8984375 C-44.5 37.5625 -44.5 37.5625 -45.84765625 35.2421875 C-48.02972073 26.27873699 -44.72906343 18.06911601 -40.25390625 10.4375 C-31.51006179 -2.64111154 -14.0380249 -6.49012134 0 0 Z " fill="#FED612" transform="translate(237.5,2.4375)"/>
<path d="M0 0 C0.04898438 0.90621094 0.09796875 1.81242187 0.1484375 2.74609375 C0.57579127 9.70901291 1.25281404 16.24421429 3 23 C2.28714844 23.60585938 1.57429688 24.21171875 0.83984375 24.8359375 C-8.89894914 33.35574285 -14.90149752 42.04620767 -20 54 C-20.65582696 55.33869833 -21.31857421 56.67414891 -22 58 C-32.39360392 58.58586076 -40.66000667 56.36872218 -49 50 C-54.34816743 44.50728751 -56.18156337 39.19791641 -56.4375 31.6875 C-56.21706521 23.68755397 -54.33229267 17.217737 -48.9375 11.1875 C-35.5580963 -0.88521035 -16.85219536 -0.46605844 0 0 Z " fill="#FED613" transform="translate(346,258)"/>
<path d="M0 0 C1.3515625 1.34765625 1.3515625 1.34765625 2.625 3.0625 C9.55248314 11.51402943 18.21126263 16.4666913 28 21 C30.00278678 21.99440692 32.00355654 22.99291831 34 24 C34.59840575 34.75468116 33.53441819 41.80849187 26.8125 50.3125 C21.2308764 56.22453684 15.62817196 58.19670799 7.5625 58.5 C-1.66704942 58.16614232 -8.24532612 55.44768105 -14.72265625 48.87890625 C-16.33390407 46.50884448 -16.80520505 44.86132144 -17 42 C-16.109375 39.6328125 -16.109375 39.6328125 -14.75 37.125 C-9.68987168 26.63928965 -8.68386639 15.43067592 -8.50390625 3.94921875 C-8 1 -8 1 -6.21484375 -0.48046875 C-3.64552348 -1.08314881 -2.42295663 -1.03346517 0 0 Z " fill="#FED612" transform="translate(153,348)"/>
<path d="M0 0 C1.75390625 1.78515625 1.75390625 1.78515625 3.5625 4.0625 C8.94660359 10.3191655 15.12899631 15.43388875 22.78125 18.66796875 C32.39345974 22.73621193 32.39345974 22.73621193 34.21484375 26.53125 C34.59015692 29.53375535 34.46159455 32.01199957 34 35 C33.814375 36.29357422 33.814375 36.29357422 33.625 37.61328125 C32.07989779 44.51259183 28.3747725 49.49656434 23 54 C15.96405744 58.45449606 8.13491751 59.12929445 0 58 C-6.70913374 55.97230916 -11.30306719 52.22952297 -15.91796875 47.0625 C-17 45 -17 45 -16.828125 42.59765625 C-15.92493973 39.76455153 -14.80184199 37.14051592 -13.5625 34.4375 C-10.44461339 27.06958351 -9.14785532 19.95063569 -8.8046875 11.98046875 C-8.7727832 11.29895752 -8.74087891 10.61744629 -8.70800781 9.9152832 C-8.62856214 7.9625552 -8.58301412 6.00853666 -8.5390625 4.0546875 C-8 1 -8 1 -6.2109375 -0.4921875 C-3.60039904 -1.09178114 -2.44919182 -1.09122408 0 0 Z " fill="#FED612" transform="translate(391,293)"/>
<path d="M0 0 C5.27252778 4.84564917 8.56578221 10.04379343 9.3515625 17.203125 C9.7344401 26.51309616 8.26722273 33.1477548 2.0625 40.203125 C-1.63203463 43.75771514 -1.63203463 43.75771514 -4 45 C-7.45647157 44.71059559 -10.29410252 43.53053995 -13.4375 42.125 C-24.57904321 37.59256748 -36.10628087 36.48307823 -48 36 C-48.99 32.535 -48.99 32.535 -50 29 C-49.05640625 28.21689453 -49.05640625 28.21689453 -48.09375 27.41796875 C-38.23627377 18.94113302 -30.70970774 9.05154145 -26.1796875 -3.22265625 C-25 -5 -25 -5 -22.703125 -5.7578125 C-14.14040684 -6.52499245 -6.93253749 -5.2433227 0 0 Z " fill="#FED612" transform="translate(213,277)"/>
<path d="M0 0 C3.77945117 2.63460771 7.51907094 5.48844939 10.01171875 9.40234375 C9.7330125 14.3944645 7.15187642 18.94337977 5.16796875 23.46484375 C3.43751277 27.86113732 2.88777714 32.00148881 2.6953125 36.703125 C2.6324707 38.16782227 2.6324707 38.16782227 2.56835938 39.66210938 C2.52904297 40.66951172 2.48972656 41.67691406 2.44921875 42.71484375 C2.40603516 43.74158203 2.36285156 44.76832031 2.31835938 45.82617188 C2.2126505 48.35143944 2.11055407 50.87679937 2.01171875 53.40234375 C-2.34075363 55.45767793 -2.34075363 55.45767793 -5.13671875 55.21875 C-7.34670578 54.24430424 -8.17925872 53.27093544 -9.61328125 51.33984375 C-16.54076439 42.88831432 -25.19954388 37.93565245 -34.98828125 33.40234375 C-36.99106803 32.40793683 -38.99183779 31.40942544 -40.98828125 30.40234375 C-41.45690965 19.98837934 -40.49596503 12.48455881 -33.82421875 4.234375 C-25.2141154 -4.35740898 -10.65146245 -5.70106847 0 0 Z " fill="#FED612" transform="translate(365.98828125,184.59765625)"/>
</svg>
